<svg width="147" height="37" viewBox="0 0 147 37" fill="none" xmlns="http://www.w3.org/2000/svg">
<path d="M86.0975 34.1151C86.0975 34.2082 86.061 34.2975 85.996 34.3633C85.9311 34.4291 85.843 34.4661 85.7512 34.4661C85.6594 34.4661 85.5713 34.4291 85.5064 34.3633C85.4414 34.2975 85.4049 34.2082 85.4049 34.1151V33.4443C85.0278 34.0435 84.4809 34.5623 83.6252 34.5623C82.5224 34.5623 81.4087 33.6187 81.4087 31.9797V31.9618C81.4087 30.334 82.5114 29.3702 83.6252 29.3702C83.9873 29.3739 84.3422 29.4737 84.6544 29.6596C84.9667 29.8456 85.2254 30.1112 85.4049 30.4301V28.1337C85.402 28.086 85.4085 28.0382 85.4243 27.9932C85.4401 27.9482 85.4646 27.9068 85.4966 27.8717C85.5285 27.8366 85.5672 27.8084 85.6102 27.7889C85.6532 27.7694 85.6997 27.7589 85.7468 27.7581C85.7943 27.7589 85.8411 27.7694 85.8846 27.7888C85.928 27.8082 85.9673 27.8363 85.9999 27.8712C86.0326 27.9062 86.058 27.9474 86.0748 27.9925C86.0915 28.0376 86.0992 28.0856 86.0975 28.1337V34.1151ZM82.1277 31.9372V31.9573C82.1277 33.1335 82.8908 33.8848 83.7619 33.8848C84.6331 33.8848 85.4402 33.1044 85.4402 31.9573V31.9349C85.4402 30.7901 84.6242 30.0209 83.7619 30.0209C82.8555 30.0231 82.1188 30.7342 82.1188 31.9349L82.1277 31.9372Z" fill="#8296AA"/>
<path d="M88.691 28.1471C88.69 28.0938 88.6998 28.0408 88.72 27.9916C88.7401 27.9423 88.7701 27.8978 88.808 27.8609C88.8459 27.8239 88.8909 27.7953 88.9402 27.7768C88.9896 27.7584 89.0421 27.7504 89.0946 27.7535C89.1478 27.7495 89.2013 27.7567 89.2516 27.7747C89.302 27.7927 89.3481 27.8211 89.387 27.8581C89.426 27.8951 89.457 27.9398 89.478 27.9896C89.499 28.0393 89.5097 28.093 89.5092 28.1471V28.2723C89.5087 28.3261 89.4974 28.3793 89.4761 28.4285C89.4547 28.4778 89.4237 28.5222 89.385 28.559C89.3462 28.5958 89.3005 28.6242 89.2506 28.6426C89.2007 28.6609 89.1476 28.6689 89.0946 28.6658C89.0422 28.6683 88.99 28.6599 88.9409 28.6411C88.8919 28.6224 88.8472 28.5938 88.8094 28.557C88.7716 28.5201 88.7417 28.4759 88.7213 28.427C88.7009 28.378 88.6906 28.3254 88.691 28.2723V28.1471ZM88.7527 29.7905C88.7497 29.695 88.7839 29.602 88.8478 29.5318C88.9118 29.4615 89.0004 29.4195 89.0946 29.4149C89.1422 29.4154 89.1892 29.4257 89.2328 29.445C89.2764 29.4644 89.3157 29.4924 89.3484 29.5274C89.3811 29.5625 89.4065 29.6038 89.4232 29.649C89.4398 29.6942 89.4473 29.7423 89.4453 29.7905V34.115C89.4482 34.1627 89.4417 34.2105 89.4259 34.2555C89.4101 34.3006 89.3855 34.3419 89.3536 34.377C89.3216 34.4121 89.283 34.4403 89.24 34.4598C89.197 34.4794 89.1505 34.4899 89.1034 34.4907C89.0558 34.4901 89.0088 34.4799 88.9652 34.4605C88.9216 34.4412 88.8823 34.4132 88.8496 34.3782C88.8169 34.3431 88.7915 34.3018 88.7748 34.2566C88.7582 34.2114 88.7507 34.1632 88.7527 34.115V29.7905Z" fill="#8296AA"/>
<path d="M91.9176 35.4141C91.8628 35.3848 91.8171 35.3406 91.7855 35.2866C91.754 35.2325 91.7379 35.1706 91.7389 35.1078C91.7425 35.0233 91.7766 34.9431 91.8348 34.8825C91.893 34.8219 91.9711 34.7851 92.0543 34.7791C92.1087 34.7796 92.1618 34.7968 92.2065 34.8283C92.6844 35.1774 93.2583 35.3658 93.8473 35.3672C94.8729 35.3672 95.5367 34.7612 95.5367 33.5962V33.0059C95.1331 33.5851 94.5663 34.0569 93.715 34.0569C93.4193 34.0541 93.1271 33.9911 92.8559 33.8716C92.5847 33.7521 92.3399 33.5785 92.1362 33.3611C91.9325 33.1437 91.774 32.887 91.6702 32.6063C91.5663 32.3256 91.5192 32.0265 91.5316 31.7269V31.7113C91.5316 30.2579 92.6101 29.3612 93.715 29.3612C94.0758 29.3604 94.4311 29.4517 94.7479 29.6268C95.0648 29.8019 95.333 30.055 95.5279 30.3629V29.795C95.5255 29.7475 95.5325 29.6999 95.5485 29.6552C95.5645 29.6104 95.5891 29.5693 95.6209 29.5344C95.6528 29.4994 95.6912 29.4712 95.7339 29.4514C95.7766 29.4317 95.8228 29.4208 95.8697 29.4194C95.9169 29.4208 95.9634 29.4317 96.0065 29.4513C96.0495 29.471 96.0883 29.4991 96.1207 29.534C96.1531 29.5689 96.1783 29.6099 96.1951 29.6546C96.2118 29.6994 96.2196 29.7471 96.2182 29.795V33.5806C96.2182 34.3498 95.9976 34.9379 95.6271 35.3426C95.2147 35.7898 94.595 36.0134 93.8627 36.0134C93.17 36.0144 92.4927 35.8057 91.9176 35.4141ZM95.5543 31.7113V31.6934C95.5541 31.4683 95.5095 31.2454 95.4231 31.0381C95.3366 30.8307 95.2102 30.6429 95.0511 30.4858C94.8921 30.3287 94.7036 30.2055 94.4969 30.1233C94.2902 30.0412 94.0693 30.0018 93.8473 30.0074C93.6314 30.0032 93.4169 30.044 93.2171 30.1273C93.0174 30.2105 92.8366 30.3345 92.6861 30.4916C92.5355 30.6486 92.4184 30.8353 92.342 31.0401C92.2656 31.2449 92.2314 31.4635 92.2418 31.6822V31.7113C92.2344 31.9302 92.2704 32.1485 92.3476 32.3531C92.4249 32.5577 92.5418 32.7445 92.6915 32.9025C92.8411 33.0605 93.0205 33.1865 93.2191 33.273C93.4176 33.3595 93.6312 33.4048 93.8473 33.4062C94.0696 33.4103 94.2906 33.3696 94.4972 33.2863C94.7039 33.2031 94.8921 33.079 95.051 32.9212C95.2098 32.7635 95.3362 32.5753 95.4226 32.3675C95.509 32.1598 95.5538 31.9367 95.5543 31.7113Z" fill="#8296AA"/>
<path d="M98.6772 28.1471C98.6772 28.0373 98.7202 27.9321 98.7968 27.8545C98.8733 27.777 98.977 27.7334 99.0852 27.7334C99.1935 27.7334 99.2972 27.777 99.3737 27.8545C99.4503 27.9321 99.4932 28.0373 99.4932 28.1471V28.2723C99.4932 28.382 99.4503 28.4872 99.3737 28.5648C99.2972 28.6424 99.1935 28.6859 99.0852 28.6859C98.977 28.6859 98.8733 28.6424 98.7968 28.5648C98.7202 28.4872 98.6772 28.382 98.6772 28.2723V28.1471Z" fill="#8296AA"/>
<path d="M98.739 29.7905C98.739 29.6974 98.7755 29.6081 98.8404 29.5423C98.9054 29.4764 98.9934 29.4395 99.0853 29.4395C99.1771 29.4395 99.2651 29.4764 99.3301 29.5423C99.395 29.6081 99.4315 29.6974 99.4315 29.7905V34.115C99.4345 34.1627 99.4279 34.2105 99.4122 34.2555C99.3964 34.3005 99.3718 34.3418 99.3399 34.377C99.3079 34.4121 99.2692 34.4402 99.2262 34.4598C99.1832 34.4793 99.1368 34.4898 99.0897 34.4906C99.0421 34.4901 98.9951 34.4798 98.9515 34.4605C98.9079 34.4412 98.8686 34.4132 98.8358 34.3781C98.8031 34.3431 98.7777 34.3017 98.7611 34.2565C98.7444 34.2113 98.7369 34.1632 98.739 34.115V29.7905Z" fill="#8296AA"/>
<path d="M102.391 33.1245V30.1192H102.014C101.931 30.1147 101.853 30.078 101.796 30.0169C101.739 29.9557 101.707 29.8747 101.708 29.7905C101.706 29.7063 101.738 29.6249 101.795 29.5639C101.852 29.5028 101.931 29.467 102.014 29.4641H102.391V28.1225C102.389 28.0751 102.396 28.0278 102.412 27.9831C102.427 27.9385 102.452 27.8976 102.484 27.8626C102.515 27.8276 102.553 27.7994 102.596 27.7795C102.638 27.7597 102.684 27.7485 102.731 27.7468C102.826 27.7509 102.916 27.7923 102.982 27.8624C103.048 27.9325 103.084 28.0257 103.084 28.1225V29.4641H104.286C104.369 29.467 104.449 29.5026 104.507 29.5634C104.565 29.6243 104.598 29.7057 104.599 29.7905C104.6 29.8762 104.568 29.9588 104.509 30.0204C104.45 30.0819 104.37 30.1175 104.286 30.1192H103.084V33.0261C103.084 33.6343 103.397 33.8556 103.864 33.8556C104.007 33.8494 104.148 33.8262 104.286 33.7863C104.366 33.7898 104.443 33.8253 104.498 33.885C104.553 33.9448 104.583 34.0242 104.581 34.1061C104.581 34.1687 104.562 34.2298 104.527 34.2813C104.492 34.3328 104.443 34.3723 104.385 34.3945C104.169 34.4876 103.936 34.5333 103.701 34.5287C102.962 34.5287 102.391 34.1351 102.391 33.1245Z" fill="#8296AA"/>
<path d="M106.182 32.997V32.9791C106.182 31.9282 106.99 31.3692 108.167 31.3692C108.651 31.3648 109.132 31.4364 109.594 31.5816V31.4072C109.594 30.5128 109.083 30.05 108.211 30.05C107.794 30.0503 107.383 30.1458 107.007 30.3295C106.967 30.3468 106.925 30.3567 106.882 30.3585C106.8 30.3556 106.723 30.321 106.666 30.2618C106.61 30.2027 106.578 30.1235 106.577 30.041C106.577 29.9767 106.594 29.9135 106.628 29.8589C106.661 29.8042 106.71 29.7604 106.767 29.7324C107.241 29.5053 107.76 29.3899 108.284 29.3948C108.946 29.3948 109.442 29.5782 109.782 29.9449C110.121 30.3116 110.258 30.7632 110.258 31.4005V34.124C110.261 34.1704 110.255 34.217 110.24 34.2609C110.225 34.3049 110.201 34.3452 110.17 34.3795C110.14 34.4139 110.102 34.4414 110.06 34.4605C110.018 34.4796 109.973 34.4899 109.927 34.4907C109.883 34.4913 109.838 34.4828 109.797 34.4655C109.756 34.4482 109.718 34.4225 109.687 34.3901C109.656 34.3576 109.632 34.3191 109.616 34.2768C109.6 34.2345 109.592 34.1894 109.594 34.1441V33.6969C109.405 33.9684 109.152 34.1885 108.859 34.3379C108.566 34.4872 108.242 34.5612 107.914 34.5533C107.054 34.5488 106.182 34.0189 106.182 32.997ZM109.603 32.6057V32.1228C109.161 31.9841 108.701 31.9133 108.238 31.9126C107.369 31.9126 106.882 32.3173 106.882 32.9434V32.9635C106.882 33.5896 107.422 33.9541 108.05 33.9541C108.904 33.9608 109.603 33.4018 109.603 32.6057Z" fill="#8296AA"/>
<path d="M112.477 28.1337C112.473 28.0854 112.479 28.0368 112.495 27.991C112.51 27.9452 112.535 27.9032 112.567 27.8676C112.6 27.832 112.639 27.8035 112.683 27.7841C112.727 27.7647 112.774 27.7546 112.822 27.7546C112.87 27.7546 112.917 27.7647 112.961 27.7841C113.004 27.8035 113.044 27.832 113.076 27.8676C113.109 27.9032 113.133 27.9452 113.149 27.991C113.165 28.0368 113.171 28.0854 113.167 28.1337V34.124C113.17 34.1717 113.163 34.2195 113.148 34.2645C113.132 34.3095 113.107 34.3509 113.075 34.386C113.043 34.4211 113.005 34.4493 112.962 34.4688C112.919 34.4884 112.872 34.4988 112.825 34.4996C112.778 34.4988 112.731 34.4883 112.688 34.4689C112.644 34.4494 112.605 34.4214 112.573 34.3863C112.54 34.3513 112.515 34.3101 112.499 34.265C112.482 34.22 112.475 34.172 112.477 34.124V28.1337Z" fill="#8296AA"/>
<path d="M119.655 35.4142C119.601 35.3848 119.555 35.3407 119.523 35.2866C119.492 35.2325 119.476 35.1706 119.477 35.1078C119.48 35.0235 119.513 34.9433 119.571 34.8827C119.629 34.822 119.707 34.7851 119.79 34.7791C119.844 34.7789 119.898 34.7961 119.942 34.8283C120.422 35.1777 120.997 35.3661 121.587 35.3672C122.608 35.3672 123.274 34.7612 123.274 33.5963V33.0059C122.871 33.5851 122.304 34.0569 121.451 34.0569C121.155 34.0538 120.863 33.9906 120.592 33.871C120.321 33.7513 120.077 33.5776 119.873 33.3603C119.67 33.143 119.511 32.8864 119.408 32.6058C119.304 32.3252 119.257 32.0263 119.269 31.7269V31.7113C119.269 30.2579 120.348 29.3612 121.451 29.3612C121.812 29.3596 122.168 29.4506 122.485 29.6257C122.802 29.8008 123.071 30.0544 123.266 30.363V29.795C123.263 29.7475 123.27 29.6999 123.286 29.6552C123.302 29.6104 123.327 29.5694 123.359 29.5344C123.391 29.4994 123.429 29.4712 123.472 29.4515C123.514 29.4317 123.561 29.4208 123.607 29.4194C123.655 29.4205 123.702 29.4312 123.745 29.4507C123.788 29.4703 123.827 29.4983 123.86 29.5332C123.893 29.5681 123.918 29.6092 123.935 29.6542C123.952 29.6991 123.96 29.747 123.958 29.795V33.5806C123.993 34.2237 123.781 34.8556 123.365 35.3426C122.952 35.7898 122.331 36.0134 121.601 36.0134C120.908 36.0144 120.23 35.8057 119.655 35.4142ZM123.294 31.7158V31.6979C123.294 31.4728 123.249 31.2502 123.162 31.0429C123.076 30.8357 122.949 30.648 122.79 30.491C122.631 30.334 122.443 30.2107 122.237 30.1284C122.03 30.0462 121.809 30.0066 121.587 30.0119C121.371 30.0074 121.156 30.0479 120.956 30.1311C120.756 30.2142 120.575 30.3382 120.425 30.4952C120.274 30.6523 120.157 30.8391 120.08 31.0441C120.003 31.249 119.969 31.4678 119.98 31.6867V31.7113C119.972 31.9304 120.008 32.1489 120.086 32.3536C120.163 32.5584 120.28 32.7453 120.43 32.9033C120.58 33.0614 120.76 33.1873 120.958 33.2737C121.157 33.3601 121.371 33.4051 121.587 33.4062C121.81 33.4101 122.03 33.3691 122.237 33.2857C122.443 33.2024 122.631 33.0782 122.79 32.9206C122.949 32.7629 123.075 32.5748 123.162 32.3672C123.248 32.1596 123.293 31.9367 123.294 31.7113V31.7158Z" fill="#8296AA"/>
<path d="M126.109 29.7905C126.106 29.6949 126.14 29.602 126.204 29.5317C126.268 29.4615 126.356 29.4195 126.45 29.4148C126.498 29.4154 126.545 29.4256 126.589 29.445C126.632 29.4643 126.672 29.4923 126.704 29.5274C126.737 29.5624 126.762 29.6038 126.779 29.649C126.796 29.6942 126.803 29.7423 126.801 29.7905V30.7252C127.141 29.8978 127.816 29.3835 128.398 29.3835C128.445 29.3837 128.492 29.3938 128.535 29.4131C128.579 29.4324 128.617 29.4606 128.65 29.4958C128.682 29.5311 128.706 29.5727 128.722 29.618C128.737 29.6633 128.743 29.7114 128.74 29.7592C128.744 29.849 128.716 29.9374 128.659 30.007C128.603 30.0765 128.523 30.1221 128.435 30.1348C127.538 30.2511 126.801 30.9734 126.801 32.4089V34.1038C126.801 34.1969 126.765 34.2862 126.7 34.352C126.635 34.4179 126.547 34.4548 126.455 34.4548C126.363 34.4548 126.275 34.4179 126.21 34.352C126.145 34.2862 126.109 34.1969 126.109 34.1038V29.7905Z" fill="#8296AA"/>
<path d="M129.584 31.9773V31.9572C129.584 30.5507 130.608 29.3567 132.01 29.3567C133.413 29.3567 134.436 30.5306 134.436 31.9371V31.9572C134.436 33.3636 133.402 34.5577 132.01 34.5577C130.619 34.5577 129.584 33.3838 129.584 31.9773ZM133.715 31.9773V31.9572C133.715 30.8884 132.97 30.0119 131.99 30.0119C131.011 30.0119 130.294 30.8884 130.294 31.9371V31.9572C130.294 33.026 131.029 33.8936 132.008 33.8936C132.987 33.8936 133.708 33.026 133.708 31.9773H133.715Z" fill="#8296AA"/>
<path d="M139.822 34.115C139.827 34.1639 139.823 34.2133 139.808 34.2601C139.793 34.307 139.769 34.3501 139.737 34.3868C139.704 34.4234 139.665 34.4528 139.621 34.4728C139.576 34.4929 139.528 34.5033 139.48 34.5033C139.432 34.5033 139.384 34.4929 139.339 34.4728C139.295 34.4528 139.256 34.4234 139.223 34.3868C139.191 34.3501 139.167 34.307 139.152 34.2601C139.137 34.2133 139.133 34.1639 139.138 34.115V33.5762C138.989 33.8718 138.761 34.1194 138.48 34.2912C138.2 34.463 137.878 34.5522 137.55 34.5488C136.425 34.5488 135.77 33.7394 135.77 32.5543V29.7906C135.767 29.7429 135.774 29.6951 135.79 29.6501C135.806 29.605 135.83 29.5637 135.862 29.5286C135.894 29.4935 135.933 29.4653 135.976 29.4458C136.019 29.4262 136.065 29.4157 136.112 29.4149C136.159 29.4164 136.206 29.4272 136.249 29.4469C136.292 29.4666 136.331 29.4946 136.363 29.5295C136.396 29.5644 136.421 29.6054 136.438 29.6502C136.454 29.695 136.462 29.7427 136.461 29.7906V32.3821C136.461 33.3056 136.931 33.8825 137.747 33.8825C138.563 33.8825 139.138 33.2564 139.138 32.3173V29.7906C139.135 29.7429 139.142 29.6951 139.158 29.6501C139.173 29.605 139.198 29.5637 139.23 29.5286C139.262 29.4935 139.3 29.4653 139.343 29.4458C139.386 29.4262 139.433 29.4157 139.48 29.4149C139.527 29.4166 139.573 29.4278 139.615 29.4476C139.658 29.4675 139.696 29.4956 139.728 29.5306C139.76 29.5655 139.785 29.6064 139.801 29.6511C139.817 29.6957 139.824 29.7431 139.822 29.7906V34.115Z" fill="#8296AA"/>
<path d="M141.776 29.7906C141.776 29.6975 141.812 29.6082 141.877 29.5424C141.942 29.4766 142.03 29.4396 142.122 29.4396C142.214 29.4396 142.302 29.4766 142.367 29.5424C142.432 29.6082 142.468 29.6975 142.468 29.7906V30.4614C142.845 29.8644 143.392 29.3546 144.246 29.3546C145.349 29.3546 146.465 30.2982 146.465 31.935V31.9551C146.465 33.5829 145.362 34.5467 144.246 34.5467C143.386 34.5467 142.828 34.0436 142.468 33.4868V35.6535C142.471 35.7012 142.465 35.749 142.449 35.794C142.433 35.839 142.409 35.8804 142.377 35.9155C142.345 35.9506 142.306 35.9788 142.263 35.9983C142.22 36.0178 142.174 36.0283 142.127 36.0291C142.079 36.0283 142.032 36.0178 141.989 35.9984C141.945 35.979 141.906 35.9509 141.873 35.916C141.841 35.881 141.815 35.8398 141.799 35.7947C141.782 35.7496 141.774 35.7016 141.776 35.6535V29.7906ZM145.746 31.9663V31.9484C145.746 30.7722 144.994 30.0232 144.111 30.0232C143.229 30.0232 142.433 30.8036 142.433 31.9372V31.9573C142.433 33.1134 143.249 33.8848 144.111 33.8848C145.02 33.8848 145.755 33.1715 145.755 31.9663H145.746Z" fill="#8296AA"/>
<path d="M67.1836 0.163208C65.1281 0.163651 63.1189 0.782135 61.4101 1.94043C59.7013 3.09872 58.3696 4.7448 57.5836 6.67046C56.7976 8.59612 56.5925 10.7149 56.9943 12.7587C57.396 14.8025 58.3866 16.6797 59.8407 18.1527C61.2948 19.6257 63.1471 20.6284 65.1633 21.034C67.1796 21.4396 69.2692 21.2299 71.1678 20.4314C73.0665 19.6328 74.6889 18.2813 75.8299 16.5478C76.9709 14.8143 77.5792 12.7767 77.5779 10.6927C77.5732 7.89998 76.4763 5.22317 74.5278 3.24929C72.5792 1.2754 69.9381 0.165572 67.1836 0.163208ZM67.1836 18.4181C65.6776 18.4186 64.2052 17.9662 62.9526 17.1183C61.7001 16.2704 60.7237 15.0649 60.1468 13.6544C59.57 12.2439 59.4186 10.6916 59.7118 9.19385C60.005 7.6961 60.7297 6.32013 61.7942 5.23993C62.8587 4.15973 64.2152 3.42381 65.6923 3.1252C67.1693 2.8266 68.7004 2.97873 70.0921 3.56236C71.4839 4.146 72.6737 5.13491 73.5111 6.40408C74.3485 7.67325 74.7959 9.16568 74.7968 10.6927C74.7962 12.7402 73.9941 14.7039 72.5667 16.1524C71.1393 17.6008 69.2032 18.4157 67.1836 18.4181Z" fill="url(#paint0_linear_137_576)"/>
<path d="M1.97536 23.8204C1.11524 23.7779 0.449219 23.3419 0.449219 22.5101C0.452105 22.1744 0.585084 21.8533 0.819448 21.6161C1.05381 21.3789 1.37075 21.2446 1.70189 21.2423C1.93787 21.2423 2.16945 21.2825 2.36352 21.2825C3.61401 21.2825 4.47414 20.453 4.47414 18.6686V1.65023C4.47232 1.24644 4.62717 0.858109 4.90527 0.569044C5.18337 0.279979 5.56241 0.113361 5.96061 0.105148C6.16146 0.102126 6.36085 0.140042 6.54696 0.216649C6.73308 0.293255 6.90214 0.406985 7.04408 0.551097C7.18601 0.695209 7.29793 0.866756 7.37322 1.05557C7.44851 1.24438 7.48564 1.4466 7.48236 1.65023V18.5859C7.48236 22.1948 5.60773 23.8584 2.6745 23.8584C2.44081 23.8668 2.20683 23.8541 1.97536 23.8204Z" fill="#002850"/>
<path d="M22.089 21.3965C16.5423 21.3965 12.0079 17.0788 12.0079 10.7396V10.6569C12.0079 4.75156 16.1123 0 21.7119 0C27.6908 0 31.0916 4.95279 31.0916 10.3796C31.0924 10.5672 31.0567 10.7531 30.9863 10.9266C30.9159 11.1001 30.8123 11.2577 30.6814 11.3904C30.5506 11.523 30.3951 11.6281 30.224 11.6994C30.0529 11.7708 29.8695 11.8071 29.6845 11.8062H15.0558C15.4969 16.247 18.5845 18.7379 22.1728 18.7379C24.6738 18.7379 26.5109 17.7451 27.9952 16.3588C28.179 16.1825 28.4096 16.0647 28.6586 16.0197C28.9077 15.9747 29.1643 16.0045 29.3968 16.1055C29.6294 16.2065 29.8277 16.3743 29.9674 16.5881C30.107 16.802 30.182 17.0526 30.1829 17.3091C30.1806 17.4984 30.1376 17.6849 30.0568 17.8556C29.976 18.0263 29.8595 18.1771 29.7154 18.2974C27.7966 20.1712 25.5317 21.3965 22.089 21.3965ZM28.0701 9.54559C27.757 5.82261 25.6442 2.57367 21.6236 2.57367C18.0949 2.57367 15.4484 5.54534 15.0536 9.54559H28.0701Z" fill="#002850"/>
<path d="M81.0094 18.7424C80.8389 18.612 80.7009 18.443 80.6063 18.2489C80.5117 18.0547 80.4632 17.8409 80.4646 17.6244C80.4693 17.2731 80.6113 16.938 80.8594 16.6928C81.1075 16.4475 81.4414 16.3121 81.7879 16.3163C82.0547 16.3093 82.3163 16.3927 82.5311 16.5533C84.602 17.9799 86.7523 18.7357 88.9423 18.7357C91.3683 18.7357 93.1327 17.4678 93.1327 15.4823V15.404C93.1327 13.3446 90.7486 12.5531 88.0888 11.7973C84.924 10.8872 81.4064 9.78487 81.4064 6.01269V5.93666C81.4064 2.41045 84.2999 0.0693359 88.2851 0.0693359C90.4354 0.0693359 92.7798 0.740152 94.7338 1.81121C94.9565 1.93842 95.1424 2.12267 95.2728 2.34555C95.4032 2.56844 95.4737 2.82213 95.4771 3.08127C95.4718 3.43236 95.3297 3.76707 95.0817 4.0122C94.8337 4.25733 94.5001 4.39292 94.1538 4.38934C93.9245 4.38762 93.6985 4.33415 93.4922 4.23281C91.7719 3.24225 89.937 2.643 88.2145 2.643C85.8327 2.643 84.3087 3.91083 84.3087 5.61691V5.69741C84.3087 7.63828 86.8097 8.38064 89.5069 9.22362C92.632 10.1739 95.9931 11.4015 95.9931 15.0887V15.167C95.9931 19.051 92.8261 21.3093 88.8012 21.3093C86.0097 21.2595 83.2966 20.3656 81.0094 18.7424Z" fill="#00274F"/>
<path d="M100.753 1.62335C100.745 1.41803 100.778 1.21323 100.85 1.02122C100.922 0.82921 101.032 0.653933 101.172 0.505887C101.313 0.357842 101.482 0.240078 101.668 0.159634C101.855 0.07919 102.055 0.0377197 102.258 0.0377197C102.46 0.0377197 102.661 0.07919 102.848 0.159634C103.034 0.240078 103.203 0.357842 103.343 0.505887C103.484 0.653933 103.593 0.82921 103.665 1.02122C103.738 1.21323 103.771 1.41803 103.763 1.62335V19.7732C103.771 19.975 103.738 20.1763 103.667 20.3648C103.595 20.5533 103.486 20.7251 103.347 20.8697C103.208 21.0143 103.042 21.1286 102.858 21.2058C102.673 21.2829 102.476 21.3212 102.277 21.3183C102.075 21.3216 101.876 21.2839 101.689 21.2074C101.503 21.1309 101.334 21.0173 101.192 20.8731C101.049 20.729 100.937 20.5573 100.862 20.3684C100.786 20.1794 100.749 19.977 100.753 19.7732V1.62335Z" fill="#00274F"/>
<path d="M107.905 19.6927V19.6122C107.905 19.1002 108.097 18.7022 108.527 18.2259L121.318 3.02093H109.515C109.348 3.02419 109.182 2.99393 109.026 2.9319C108.871 2.86986 108.729 2.77727 108.609 2.65945C108.488 2.54163 108.393 2.40091 108.326 2.24537C108.26 2.08982 108.225 1.92253 108.222 1.75311C108.226 1.4071 108.363 1.07631 108.605 0.832046C108.847 0.587783 109.173 0.449594 109.515 0.447266H123.932C124.757 0.447266 125.381 1.0018 125.381 1.6726V1.74863C125.381 2.26292 125.184 2.65646 124.757 3.13721L111.965 18.3422H124.276C124.613 18.3422 124.936 18.4779 125.174 18.7194C125.412 18.961 125.546 19.2885 125.546 19.6301C125.546 19.9717 125.412 20.2993 125.174 20.5408C124.936 20.7824 124.613 20.9181 124.276 20.9181H109.345C108.566 20.9225 107.905 20.3658 107.905 19.6927Z" fill="#00274F"/>
<path d="M137.5 21.3965C131.951 21.3965 127.419 17.0788 127.419 10.7396V10.6569C127.419 4.75156 131.521 0 137.109 0C143.09 0 146.489 4.95279 146.489 10.3796C146.49 10.567 146.454 10.7528 146.384 10.9261C146.314 11.0994 146.21 11.2569 146.08 11.3896C145.949 11.5222 145.794 11.6273 145.623 11.6988C145.452 11.7703 145.269 11.8068 145.084 11.8062H130.467C130.894 16.247 133.982 18.7379 137.577 18.7379C140.08 18.7379 141.915 17.7451 143.401 16.3588C143.585 16.1828 143.816 16.0652 144.065 16.0204C144.314 15.9755 144.571 16.0054 144.804 16.1063C145.036 16.2072 145.235 16.3748 145.374 16.5885C145.514 16.8021 145.59 17.0526 145.591 17.3091C145.589 17.4988 145.545 17.6855 145.463 17.8563C145.382 18.027 145.264 18.1776 145.119 18.2974C143.205 20.1712 140.938 21.3965 137.5 21.3965ZM143.481 9.54559C143.168 5.82261 141.055 2.57367 137.032 2.57367C133.503 2.57367 130.857 5.54534 130.467 9.54559H143.481Z" fill="#002850"/>
<path d="M44.0199 0.163208C37.0287 0.163208 35.1805 5.40222 35.1805 8.17265V19.7486C35.1952 20.1327 35.3561 20.4961 35.6293 20.7625C35.9025 21.029 36.2669 21.1779 36.6461 21.1779C37.0252 21.1779 37.3896 21.029 37.6628 20.7625C37.936 20.4961 38.0969 20.1327 38.1116 19.7486V8.17265C38.1116 7.65613 38.277 3.13266 44.0199 3.13266C49.571 3.13266 49.9173 7.32743 49.9305 8.17041V19.7486C49.9452 20.1327 50.106 20.4961 50.3793 20.7625C50.6525 21.029 51.0169 21.1779 51.396 21.1779C51.7752 21.1779 52.1396 21.029 52.4128 20.7625C52.686 20.4961 52.8468 20.1327 52.8615 19.7486V8.17265C52.8615 5.40222 51.0046 0.163208 44.0199 0.163208Z" fill="#002850"/>
<defs>
<linearGradient id="paint0_linear_137_576" x1="36338.3" y1="15958.2" x2="37624.4" y2="17227" gradientUnits="userSpaceOnUse">
<stop stop-color="#00AFA0"/>
<stop offset="0.15" stop-color="#00B5B6"/>
<stop offset="0.37" stop-color="#00BCCE"/>
<stop offset="0.5" stop-color="#00BED7"/>
<stop offset="0.6" stop-color="#00B5D5"/>
<stop offset="0.76" stop-color="#009CD1"/>
<stop offset="0.97" stop-color="#0075C9"/>
<stop offset="1" stop-color="#006EC8"/>
</linearGradient>
</defs>
</svg>
